<?xml version="1.0" encoding="UTF-8" standalone="no"?>

<svg
   xmlns:svg="http://www.w3.org/2000/svg"
   xmlns="http://www.w3.org/2000/svg"
   xmlns:inkscape="http://www.inkscape.org/namespaces/inkscape"
   viewBox="0 0 479.55327 401.494"
   width="479.55325"
   height="401.49399"
>
<g
   transform="translate(-7.5e-4,-39.03)">
	<path fill="#114155"
   d="m 324.782,277.035 -65.068,65.06 84.962,84.953 c 17.968,17.968 47.078,17.968 65.046,0 17.974,-17.974 17.982,-47.077 0.014,-65.068 z"
   inkscape:connector-curvature="0" />
	<path fill="#114155"
   d="m 125.819,208.207 50.672,50.672 65.068,-65.067 -50.664,-50.666 61.271,-61.279 c 5.032,-5.031 5.032,-13.2 0,-18.24 L 240.83,52.299 C 234.603,46.072 225.76,43.2 217.063,44.598 l -97.945,15.7 c -5.714,0.916 -10.987,3.61 -15.078,7.693 l -4.333,4.341 -3.54,-3.549 c -5.031,-5.031 -13.2,-5.031 -18.232,0 L 51.45,95.27 c -5.039,5.031 -5.039,13.2 0,18.232 l 3.54,3.548 -51.216,51.208 c -5.031,5.031 -5.031,13.2 0,18.232 l 62.771,62.771 c 5.031,5.031 13.2,5.031 18.232,0 z"
   id="path862"
   inkscape:connector-curvature="0" />
	<path fill="#114155"
   d="m 467.096,113.758 c -1.78,-1.778 -4.107,-2.672 -6.429,-2.672 -2.322,0 -4.651,0.894 -6.429,2.672 l -36.114,36.09 c -3.168,3.184 -7.331,4.767 -11.484,4.767 -4.154,0 -8.315,-1.584 -11.485,-4.767 l -26.423,-26.431 c -3.068,-3.028 -4.759,-7.167 -4.759,-11.477 0,-4.31 1.692,-8.439 4.752,-11.491 l 36.114,-36.106 c 3.549,-3.549 3.549,-9.311 0,-12.852 -8.237,-8.229 -19.132,-12.461 -30.103,-12.461 -8.535,0 -17.114,2.562 -24.521,7.795 l -19.622,13.86 c -18.652,13.161 -30.228,34.148 -31.454,56.946 l -2.322,43.405 -206.164,206.177 c -16.772,16.78 -16.772,43.949 0,60.721 8.393,8.387 19.38,12.587 30.368,12.587 10.987,0 21.966,-4.193 30.359,-12.579 l 206.186,-206.176 43.389,-2.322 c 22.789,-1.22 43.769,-12.796 56.938,-31.448 l 13.868,-19.628 c 11.951,-16.913 9.971,-39.974 -4.665,-54.61 z M 123.149,413.453 c -10.056,0 -18.21,-8.153 -18.21,-18.21 0,-10.055 8.153,-18.208 18.21,-18.208 10.055,0 18.208,8.153 18.208,18.208 0,10.057 -8.153,18.21 -18.208,18.21 z"
   id="path864"
   inkscape:connector-curvature="0" />
</g>
</svg>