<?xml version="1.0" encoding="UTF-8" standalone="no"?>
<!-- Uploaded to SVGRepo https://www.svgrepo.com -->

<svg
   xmlns:rdf="http://www.w3.org/1999/02/22-rdf-syntax-ns#"
   xmlns:svg="http://www.w3.org/2000/svg"
   xmlns="http://www.w3.org/2000/svg"
   xmlns:inkscape="http://www.inkscape.org/namespaces/inkscape"
   version="1.1"
   id="Layer_1"
   x="0px"
   y="0px"
   width="92.050003"
   height="82"
   viewBox="0 0 92.050003 82"
   enable-background="new 0 0 92 92"
>
<path
   fill="#501616"
   d="m 88.025,82 h -84 c -1.4,0 -2.7,-0.8 -3.5,-2 -0.7,-1.2 -0.7,-2.7 0,-4 l 42,-74 c 0.7,-1.3 2,-2 3.5,-2 1.5,0 2.8,0.8 3.5,2 l 42,74 c 0.7,1.2 0.7,2.8 0,4 -0.8,1.2 -2.1,2 -3.5,2 z m -77.1,-8 h 70.3 l -35.2,-61.9 z m 39.1,-23.9 V 31.5 c 0,-2.2 -1.8,-4 -4,-4 -2.2,0 -4,1.8 -4,4 v 18.6 c 0,2.2 1.8,4 4,4 2.2,0 4,-1.8 4,-4 z m -0.5,16.6 c 0.9,-0.9 1.5,-2.2 1.5,-3.5 0,-1.3 -0.5,-2.6 -1.5,-3.5 -0.9,-0.9 -2.2,-1.5 -3.5,-1.5 -1.3,0 -2.6,0.5 -3.5,1.5 -0.9,0.9 -1.5,2.2 -1.5,3.5 0,1.3 0.5,2.6 1.5,3.5 0.9,0.9 2.2,1.5 3.5,1.5 1.3,0 2.6,-0.6 3.5,-1.5 z"
   inkscape:connector-curvature="0" />
</svg>